HIERARCHY
ROOT Hips
{
  OFFSET 40.9192 92.6879 18.85
  CHANNELS 6 Xposition Yposition Zposition Zrotation Xrotation Yrotation
  JOINT LeftUpLeg
  {
    OFFSET 8.64259 1.95398 -2.38835
    CHANNELS 3 Zrotation Xrotation Yrotation
    JOINT LeftLeg
    {
      OFFSET 43.7702 0 0
      CHANNELS 3 Zrotation Xrotation Yrotation
      JOINT LeftFoot
      {
        OFFSET 40.6238 0 0
        CHANNELS 3 Zrotation Xrotation Yrotation
        JOINT LeftToeBase
        {
          OFFSET 12.7242 0 0
          CHANNELS 3 Zrotation Xrotation Yrotation
          End Site
          {
            OFFSET 0 0 0
          }
        }
      }
    }
  }
  JOINT RightUpLeg
  {
    OFFSET -8.2249 1.95398 -2.59336
    CHANNELS 3 Zrotation Xrotation Yrotation
    JOINT RightLeg
    {
      OFFSET 43.5653 0 0
      CHANNELS 3 Zrotation Xrotation Yrotation
      JOINT RightFoot
      {
        OFFSET 40.6238 0 0
        CHANNELS 3 Zrotation Xrotation Yrotation
        JOINT RightToeBase
        {
          OFFSET 12.7242 0 0
          CHANNELS 3 Zrotation Xrotation Yrotation
          End Site
          {
            OFFSET 0 0 0
          }
        }
      }
    }
  }
  JOINT Spine
  {
    OFFSET 0.165834 0.87714 6.61349
    CHANNELS 3 Zrotation Xrotation Yrotation
    JOINT Spine1
    {
      OFFSET 7.38963 1.71661e-005 0
      CHANNELS 3 Zrotation Xrotation Yrotation
      JOINT Spine2
      {
        OFFSET 11.9445 1.14441e-005 0
        CHANNELS 3 Zrotation Xrotation Yrotation
        JOINT Spine3
        {
          OFFSET 14.7254 4.19617e-005 0
          CHANNELS 3 Zrotation Xrotation Yrotation
          JOINT Spine4
          {
            OFFSET 10.9679 0 0
            CHANNELS 3 Zrotation Xrotation Yrotation
            JOINT RightShoulder
            {
              OFFSET 2.46616 -1.6653 3.69651
              CHANNELS 3 Zrotation Xrotation Yrotation
              JOINT RightArm
              {
                OFFSET 13.0012 0 0
                CHANNELS 3 Zrotation Xrotation Yrotation
                JOINT RightForeArm
                {
                  OFFSET 28.7848 1.52588e-005 0
                  CHANNELS 3 Zrotation Xrotation Yrotation
                  JOINT RightHand
                  {
                    OFFSET 26.5688 1.52588e-005 0
                    CHANNELS 3 Zrotation Xrotation Yrotation
                    End Site
                    {
                      OFFSET 0 0 0
                    }
                  }
                }
              }
            }
            JOINT LeftShoulder
            {
              OFFSET 2.38034 -1.29275 -3.7523
              CHANNELS 3 Zrotation Xrotation Yrotation
              JOINT LeftArm
              {
                OFFSET 16.3182 6.10351e-005 0
                CHANNELS 3 Zrotation Xrotation Yrotation
                JOINT LeftForeArm
                {
                  OFFSET 27.0901 0 0
                  CHANNELS 3 Zrotation Xrotation Yrotation
                  JOINT LeftHand
                  {
                    OFFSET 24.5451 1.52588e-005 0
                    CHANNELS 3 Zrotation Xrotation Yrotation
                    End Site
                    {
                      OFFSET 0 0 0
                    }
                  }
                }
              }
            }
            JOINT Neck
            {
              OFFSET 5.0226 -0.0266342 0
              CHANNELS 3 Zrotation Xrotation Yrotation
              JOINT Head
              {
                OFFSET 6.69363 2.86102e-005 0
                CHANNELS 3 Zrotation Xrotation Yrotation
                End Site
                {
                  OFFSET 0 0 0
                }
              }
            }
          }
        }
      }
    }
  }
}
MOTION
Frames:	12
Frame Time:	0.0416667
51.6648 86.8344 -307.321 2.68213 -17.4104 20.7343 175.661 61.1729 107.573 -35.7553 27.1357 -2.41861 33.6043 -24.3917 -13.73 103.521 19.9546 -54.6853 60.8404 71.0163 -176.04 -95.7246 32.5755 44.6773 58.7131 7.84289 18.7325 39.2989 2.98341 73.5635 -0.454265 1.07644 -88.4688 24.7105 0.0118228 3.17442 13.0357 0.151456 3.17083 -9.47029 -0.942327 3.0315 10.5423 -0.942324 3.03149 -164.347 -58.2536 30.6701 -24.6465 6.0949 33.5958 -162.039 29.7913 -120.218 -48.1904 -10.2785 32.4751 -93.3332 -11.2432 56.131 -33.1256 32.2829 4.5285 8.5174 -9.78542 -103.777 35.2375 0.616864 -2.29271 29.0517 -25.9471 -49.211 -12.7545 -9.08895 35.5904 
48.5994 90.3462 -307.466 9.82607 -37.7783 10.9657 -174.797 28.8758 89.565 -14.3091 26.304 -1.67934 19.3332 -22.0258 -19.8724 107.05 26.8386 -46.3001 121.959 79.26 130.562 -70.1593 12.6086 18.0459 65.6455 1.0985 4.73032 60.5939 8.34747 25.4332 -0.374329 3.31248 -88.8055 20.2409 -0.0631879 2.55431 8.56741 0.0492513 2.55461 -13.9491 -0.827707 2.4174 6.0636 -0.827708 2.41738 156.274 -62.9392 -13.3483 -4.94188 -13.6379 33.0849 -165.729 11.3076 -118.311 -51.5138 -11.2385 32.1703 -95.0638 -26.5702 62.1606 -29.0958 34.678 5.02184 12.2248 -13.2501 -109.023 33.9473 0.918594 -1.29782 31.5414 -14.5648 -28.8031 -15.2286 -4.89562 24.1097 
46.3496 91.304 -306.881 9.85515 -61.3402 2.16073 -176.886 -1.61805 89.9118 -5.37229 27.8309 -0.272839 17.8668 -19.1279 -18.641 103.744 34.8749 -32.6687 169.791 62.4252 91.05 -63.3601 -6.22505 1.42806 72.7376 -3.54866 -1.93704 51.0361 -0.0839431 -7.1127 -0.712551 5.67504 -88.8889 15.5255 -0.854763 2.34178 3.85258 -0.750897 2.37709 -18.6714 -1.51891 1.97686 1.34123 -1.51891 1.97685 114.258 -56.843 -64.815 20.543 -20.7815 40.7504 -170.468 -3.96136 -119.206 -58.9635 -11.8743 31.0293 -94.2796 -36.7276 68.0531 -30.8707 33.1835 8.42347 13.9888 -12.7048 -106.968 34.8682 1.09272 -0.857123 21.7018 -2.45682 -12.4635 -5.68162 1.26566 12.075 
46.6304 90.924 -304.734 5.42022 -79.3008 2.71293 -173.388 -6.94802 91.5544 -30.7638 24.1045 0.561071 35.0934 -12.7226 -10.2839 96.2799 34.4382 -27.3685 171.028 42.3207 94.5674 -61.4851 -8.08913 1.55329 65.513 -2.40483 -1.25431 49.032 -0.0935379 -10.0771 -0.995692 7.6786 -89.708 11.5338 -1.84372 0.757237 -0.135951 -1.80859 0.837667 -22.6824 -1.98605 0.167931 -2.66974 -1.98606 0.167903 98.0899 -49.7695 -88.3438 31.1036 -17.1668 39.9816 -167.264 -11.4626 -114.251 -68.4743 -7.3744 19.9305 -92.3704 -41.0153 72.702 -33.2111 28.3355 10.5133 11.2516 -8.06995 -99.8957 34.9382 1.18432 -0.594678 14.8883 2.91339 -4.24075 1.37124 4.24689 7.15075 
47.313 90.2709 -299.373 32.7073 -85.1354 32.4256 -173.703 1.81914 93.964 -55.4706 15.815 2.01829 45.6652 -7.63564 -3.51475 90.6726 32.0616 -26.2991 170.227 29.2262 95.6235 -59.1999 -4.02373 3.16456 72.2866 -5.36411 -2.71551 41.9428 0.607764 -0.985134 -1.28009 8.44672 -90.034 9.98387 -2.56652 0.143394 -1.68459 -2.55773 0.256274 -24.2393 -2.4909 -0.63508 -4.22661 -2.49089 -0.635086 93.6481 -49.5824 -95.2811 30.38 -14.8948 33.8728 -161.669 -13.4395 -109.836 -70.6349 -2.53848 11.4284 -91.4743 -43.0918 74.7573 -34.403 24.0331 12.1539 8.13713 -4.6464 -89.3419 33.4896 1.08444 -0.740042 11.1993 3.80341 -2.31017 5.59703 4.7663 6.15282 
47.5462 89.0232 -292.885 12.5365 -83.9254 13.7947 -173.182 16.3404 94.2935 -70.9446 10.1208 1.52451 50.4975 -4.09664 2.8638 79.9904 29.1822 -20.6205 173.186 25.3328 97.8663 -58.3886 -1.6845 2.09784 78.4114 -8.03032 -3.61595 42.7905 0.540641 -2.8821 -0.772399 8.2826 -90.2753 10.3059 -1.66474 -0.402323 -1.36399 -1.68084 -0.328648 -23.9056 -1.46685 -0.884122 -3.89292 -1.46686 -0.884137 94.7284 -49.6349 -93.5934 28.6882 -14.1749 25.1261 -157.534 -12.3251 -107.761 -63.9774 -0.194056 7.56091 -92.5234 -45.3629 73.7249 -34.4501 21.2855 13.782 8.24237 -0.532587 -79.1031 36.8886 2.22717 2.16087 11.2643 2.61557 0.0515642 6.39946 2.91266 3.67602 
48.0863 88.368 -286.044 -25.1377 -78.3248 -21.8299 -169.536 33.0751 95.4221 -80.1424 5.26053 0.454213 53.1484 -2.2428 2.40226 55.4167 19.7724 -3.00172 178.384 23.8202 100.455 -55.0144 -1.72946 -0.646581 80.0345 -9.82249 -4.26874 46.9705 0.66109 -2.54055 0.212412 7.9138 -90.4079 11.0411 0.233598 -0.837774 -0.630396 0.196517 -0.847242 -23.1619 0.47455 -0.728865 -3.1493 0.474557 -0.728862 93.3747 -48.2163 -95.9493 28.443 -10.5796 16.5385 -153.887 -8.81123 -105.513 -53.9318 1.18133 4.31985 -93.1535 -47.9816 73.4883 -33.3891 18.2111 16.6013 6.62333 1.50666 -71.3341 41.4637 2.04386 0.909119 14.8082 1.3199 1.79229 3.93259 1.0187 2.21347 
47.1345 88.2583 -278.667 -36.8651 -76.4765 -38.0431 -164.898 42.183 90.6087 -81.1356 7.13264 -0.924079 54.3777 -1.77152 2.20075 40.4447 10.1442 13.8641 179.969 17.4084 96.3319 -52.0899 -2.8155 -3.24563 81.7727 -10.8981 -4.55608 48.8904 0.679373 -2.90858 0.697273 7.92908 -89.7706 11.0231 1.4946 0.317717 -0.646887 1.50713 0.251608 -23.1887 1.32998 0.752294 -3.17609 1.32998 0.752288 93.2096 -44.2393 -96.9556 32.6615 -9.19417 9.53924 -147.014 -6.54379 -101.164 -47.3617 3.44775 -2.55907 -92.6547 -48.364 74.3451 -34.9587 16.518 24.9285 1.14634 -1.18751 -73.7404 40.0332 1.88495 0.707579 16.6868 0.478449 3.42077 2.47552 -0.384401 0.388405 
46.6342 89.4113 -270.238 -43.9735 -76.3132 -47.7632 -162.837 46.4345 88.1548 -74.407 12.3873 -2.61109 55.4362 -1.89252 2.70241 41.2109 11.1407 16.6401 179.693 8.99514 92.6235 -47.0695 -7.81516 -5.45433 74.1827 -7.80317 -3.81723 56.1925 1.04685 -1.87638 1.16768 7.91322 -89.3685 11.0367 2.61723 1.00521 -0.631914 2.65894 0.888991 -23.1799 2.19412 1.74557 -3.16722 2.19412 1.74555 93.9715 -41.4544 -96.2127 35.8779 -9.8789 4.71526 -129.836 -0.294785 -94.7194 -41.6575 7.64322 -17.06 -90.3652 -46.2846 77.3312 -38.8048 17.08 33.7185 3.73708 -1.59203 -79.1844 38.9642 1.97326 1.09723 15.2015 -1.31924 4.09332 2.88227 -2.35291 -1.05268 
46.8032 91.5624 -260.427 -50.14 -74.729 -53.4757 -163.031 47.6243 89.957 -60.9584 16.275 -4.8261 55.2192 -3.23375 1.72624 43.6327 13.4015 14.7574 179.739 1.03828 90.9825 -40.1476 -14.5068 -7.35155 62.8789 -3.51684 -1.9456 51.3578 1.68514 4.26212 1.64324 7.84855 -89.369 11.1675 3.56386 0.905778 -0.498744 3.60027 0.747848 -23.0635 3.12676 1.93585 -3.05087 3.12677 1.93585 94.5736 -38.451 -95.737 36.7904 -13.7254 -0.248435 -100.46 2.97851 -92.8027 -39.7492 12.3415 -31.6012 -88.5619 -45.136 79.9031 -42.451 17.5647 39.6654 2.91684 -2.42481 -81.3994 37.969 1.49713 -0.0241019 15.9238 -2.48617 6.27063 2.12109 -4.16276 -2.90813 
47.4437 93.6963 -249.884 -43.1019 -75.271 -48.5646 -165.58 45.8428 88.0545 -42.1177 18.111 -6.50897 51.9148 -6.0343 -0.43515 40.199 9.77107 12.4508 176.272 -1.94006 85.1713 -34.7216 -25.1601 -8.49986 44.1705 4.37141 3.94448 43.9709 0.717492 -1.78432 1.69853 7.66652 -89.0993 11.519 3.80045 1.40615 -0.147014 3.85864 1.23731 -22.7099 3.20212 2.48407 -2.69723 3.20212 2.48406 94.7971 -37.4833 -95.5231 36.6776 -18.2206 -2.14854 -66.227 6.79719 -95.2872 -33.3209 11.7297 -37.6272 -89.5119 -43.2097 77.9489 -45.9736 14.5835 44.0001 0.586029 -2.89318 -81.6174 39.53 0.605031 -2.56493 16.3673 -3.76738 6.55964 0.633779 -5.53533 -4.30094 
47.9415 95.1054 -239.457 -39.388 -76.6321 -44.143 -168.637 41.6548 88.9455 -22.9837 20.5887 -6.71039 46.4017 -9.8651 -3.2915 38.68 8.32334 12.8341 175.144 -6.10092 85.0153 -33.8617 -25.2603 -9.0553 35.6596 7.45331 7.84168 32.943 0.453941 -9.00208 1.81043 7.58647 -89.1866 11.6835 3.98252 1.20462 0.0182642 4.03167 1.02791 -22.5511 3.43626 2.3469 -2.53844 3.43627 2.3469 95.0371 -36.904 -95.1947 36.1406 -21.9868 -2.2637 -38.9722 5.58662 -99.8143 -29.296 6.9905 -28.1305 -90.0726 -41.5834 76.6343 -48.6592 12.5659 45.849 0.655111 -2.92129 -82.1405 39.3437 0.573237 -2.62687 16.5692 -4.8298 7.17088 -0.298645 -6.74888 -5.50393 
